<svg width="194" height="206" xmlns="http://www.w3.org/2000/svg"><g fill="none" fill-rule="evenodd"><path fill="#FACE32" d="M161.654 17.91v28.762h-31.21V8.485L97 0 63.557 8.485v38.187h-31.21V17.909L0 27.836l8.434 150.328L97 206l88.566-27.836L194 27.836z"/><path d="M109.147 131.62c0-3.44-1.058-6.247-3.162-8.406-2.104-2.16-5.763-4.165-10.965-6.027-8.402-2.897-14.624-6.298-18.666-10.23-4.042-3.919-6.069-9.428-6.069-16.528 0-6.738 1.938-12.183 5.827-16.321 3.888-4.139 9.269-6.635 16.141-7.462v-12.96h9.371v13.076c6.834 1.035 12.1 3.893 15.798 8.587 3.697 4.695 5.546 11.07 5.546 19.115H108.79c0-5.07-1.071-9.027-3.226-11.86-2.142-2.832-5.176-4.254-9.078-4.254-4.067 0-7.076 1.06-9.027 3.181-1.95 2.121-2.932 5.044-2.932 8.769 0 3.491 1.02 6.272 3.047 8.354 2.027 2.082 5.827 4.113 11.373 6.092 8.402 3.052 14.573 6.505 18.526 10.372 3.94 3.867 5.916 9.324 5.916 16.373 0 6.97-2.028 12.48-6.07 16.502-4.041 4.022-9.677 6.414-16.906 7.164v11.588h-9.32V155.21c-7.115-.75-12.903-3.298-17.378-7.643-4.476-4.345-6.707-10.902-6.707-19.71H81.25c0 5.743 1.339 9.803 4.016 12.157 2.678 2.367 6.082 3.544 10.226 3.544 4.411 0 7.79-1.048 10.136-3.156 2.346-2.082 3.519-5.018 3.519-8.781z" fill="#FFF"/></g></svg>